<svg width="42" height="43" viewBox="0 0 42 43" fill="none" xmlns="http://www.w3.org/2000/svg">
<g filter="url(#filter0_d_1_271)">
<circle cx="21" cy="17.5" r="17" fill="#696FFB" fill-opacity="0.2" shape-rendering="crispEdges"/>
</g>
<rect x="7" y="3.5" width="28" height="28" rx="14" fill="white" fill-opacity="0.2"/>
<path fill-rule="evenodd" clip-rule="evenodd" d="M22.1225 10.7642C22.8094 10.514 23.548 10.4399 24.2709 10.5487C24.9939 10.6575 25.678 10.9458 26.2608 11.3871C26.8436 11.8284 27.3065 12.4087 27.6073 13.075C27.9081 13.7413 28.0371 14.4724 27.9825 15.2014C27.928 15.9304 27.6917 16.6341 27.2951 17.2482C27.0967 17.5555 26.8613 17.8355 26.5952 18.0823C28.9319 19.0426 30.6199 21.1052 30.6199 23.625C30.6199 24.1083 30.2281 24.5 29.7449 24.5C29.2616 24.5 28.8699 24.1083 28.8699 23.625C28.8699 21.3302 26.6508 19.25 23.6199 19.25C23.5062 19.25 23.3831 19.2448 23.2528 19.2332C24.5461 20.3273 25.3699 21.8646 25.3699 23.6249C25.3699 24.1082 24.9782 24.4999 24.4949 24.4999C24.0117 24.4999 23.6199 24.1082 23.6199 23.6249C23.6199 21.3302 21.4009 19.25 18.37 19.25C15.339 19.25 13.12 21.3302 13.12 23.6249C13.12 24.1082 12.7282 24.4999 12.245 24.4999C11.7617 24.4999 11.37 24.1082 11.37 23.6249C11.37 21.1052 13.0579 19.0426 15.3946 18.0823C14.5338 17.2833 13.9951 16.1421 13.9951 14.875C13.9951 12.4587 15.9539 10.5 18.3701 10.5C19.355 10.5 20.2639 10.8255 20.9951 11.3747C21.3376 11.1179 21.7172 10.9118 22.1225 10.7642ZM22.1418 17.0932C22.639 17.3846 23.207 17.4982 23.6102 17.5C23.6134 17.5 23.6167 17.5 23.6199 17.5C24.0585 17.4999 24.4902 17.39 24.8753 17.1802C25.2605 16.9704 25.587 16.6674 25.825 16.2989C26.0629 15.9305 26.2047 15.5082 26.2374 15.0708C26.2702 14.6334 26.1927 14.1948 26.0123 13.795C25.8318 13.3952 25.5541 13.047 25.2044 12.7822C24.8547 12.5175 24.4442 12.3445 24.0105 12.2792C23.5767 12.2139 23.1335 12.2584 22.7214 12.4085C22.5236 12.4805 22.336 12.5758 22.1623 12.6918C22.533 13.3343 22.7451 14.0799 22.7451 14.875C22.7451 15.6846 22.5252 16.4428 22.1418 17.0932ZM20.3448 13.1455L20.3319 13.1308C19.8511 12.5904 19.1503 12.25 18.3701 12.25C16.9203 12.25 15.7451 13.4252 15.7451 14.875C15.7451 16.3247 16.9203 17.5 18.3701 17.5C19.8198 17.5 20.9951 16.3247 20.9951 14.875C20.9951 14.2125 20.7497 13.6074 20.3448 13.1455Z" fill="#696FFB"/>
<defs>
<filter id="filter0_d_1_271" x="0" y="0.5" width="42" height="42" filterUnits="userSpaceOnUse" color-interpolation-filters="sRGB">
<feFlood flood-opacity="0" result="BackgroundImageFix"/>
<feColorMatrix in="SourceAlpha" type="matrix" values="0 0 0 0 0 0 0 0 0 0 0 0 0 0 0 0 0 0 127 0" result="hardAlpha"/>
<feOffset dy="4"/>
<feGaussianBlur stdDeviation="2"/>
<feComposite in2="hardAlpha" operator="out"/>
<feColorMatrix type="matrix" values="0 0 0 0 0 0 0 0 0 0 0 0 0 0 0 0 0 0 0.08 0"/>
<feBlend mode="normal" in2="BackgroundImageFix" result="effect1_dropShadow_1_271"/>
<feBlend mode="normal" in="SourceGraphic" in2="effect1_dropShadow_1_271" result="shape"/>
</filter>
</defs>
</svg>
